<svg width="225" height="68" viewBox="0 0 225 68" fill="none" xmlns="http://www.w3.org/2000/svg">
<g filter="url(#filter0_d_3157_4420)">
<path fill-rule="evenodd" clip-rule="evenodd" d="M11.6053 0.5H213.395C215.811 0.5 217.761 1.9566 219.018 3.82453C220.283 5.70486 221 8.18877 221 10.8333V49.1667C221 51.8112 220.283 54.2951 219.018 56.1755C217.761 58.0434 215.811 59.5 213.395 59.5H11.6053C9.18898 59.5 7.23866 58.0434 5.98223 56.1755C4.71746 54.2951 4 51.8112 4 49.1667V10.8333C4 8.18877 4.71746 5.70486 5.98223 3.82453C7.23866 1.9566 9.18897 0.5 11.6053 0.5ZM11.6053 2.5C8.50956 2.5 6 6.23096 6 10.8333V49.1667C6 53.769 8.50957 57.5 11.6053 57.5H213.395C216.49 57.5 219 53.769 219 49.1667V10.8333C219 6.23096 216.49 2.5 213.395 2.5H11.6053Z" fill="#6F9DE2"/>
<path fill-rule="evenodd" clip-rule="evenodd" d="M34.8688 41.5423C35.4884 41.244 36.0988 40.8965 36.7 40.5L37.1 42.5H43.3V14.5H36.3V21.3H28.1C26.1 21.3 24.5266 21.8733 23.38 23.02C22.26 24.14 21.7 25.7 21.7 27.7V36.9C21.7 38.7133 22.2466 40.1667 23.34 41.26C24.4333 42.3533 25.8866 42.9 27.7 42.9H29.5C30.4066 42.9 31.5133 42.7133 32.82 42.34C33.5137 42.1319 34.1967 41.866 34.8688 41.5423ZM34.3 19.3H28.1C25.7008 19.3 23.5711 20.0004 21.9657 21.6058C20.3783 23.1932 19.7 25.3163 19.7 27.7V36.9C19.7 39.145 20.3928 41.1413 21.9257 42.6742C23.4587 44.2071 25.455 44.9 27.7 44.9H29.5C30.6602 44.9 31.9636 44.6647 33.3694 44.2631L33.382 44.2594L33.3946 44.2557C34.0317 44.0645 34.6575 43.832 35.2722 43.5591L35.4603 44.5H45.3V39.6685C45.6562 40.7927 46.2543 41.8075 47.121 42.6742C48.654 44.2071 50.6503 44.9 52.8953 44.9C57.1646 44.9 61.9015 44.6282 67.1014 44.0893L68.8953 43.9035V36.7H69.6953V30.1614L75.1061 44.5H85.872L91.0889 30.6751C91.3918 32.1175 92.0517 33.4079 93.1179 34.4742C93.2743 34.6306 93.4356 34.7783 93.6014 34.9174C93.5476 34.9134 93.4936 34.9094 93.4395 34.9054L91.2921 34.7468V43.9126L93.096 44.0904C98.565 44.6292 103.698 44.9 108.492 44.9C110.737 44.9 112.733 44.2071 114.266 42.6742C115.799 41.1413 116.492 39.145 116.492 36.9V35.3C116.492 33.055 115.799 31.0587 114.266 29.5258C113.869 29.1282 113.44 28.7871 112.984 28.5H114.095V28.7H116.495V36.9C116.495 39.145 117.188 41.1413 118.721 42.6742C120.254 44.2071 122.25 44.9 124.495 44.9C127.047 44.9 129.649 44.7628 132.3 44.4895L134.095 44.3044V43.3216C135.509 44.4036 137.231 44.9 139.131 44.9H140.531C141.691 44.9 142.995 44.6647 144.401 44.2631L144.413 44.2594L144.426 44.2557C145.063 44.0645 145.689 43.832 146.303 43.5591L146.492 44.5H156.331V39.4904C156.682 40.2132 157.151 40.8787 157.746 41.4742C157.799 41.5271 157.852 41.579 157.906 41.6299L156.72 41.5368V50.7035L158.514 50.8893C163.714 51.4282 168.451 51.7 172.72 51.7C174.965 51.7 176.962 51.0071 178.494 49.4742C180.027 47.9413 180.72 45.945 180.72 43.7V39.6387C181.075 40.7747 181.676 41.7999 182.551 42.6742C184.084 44.2071 186.08 44.9 188.325 44.9C192.594 44.9 197.331 44.6282 202.531 44.0893L204.325 43.9035V36.7H205.125V27.3C205.125 24.9113 204.43 22.789 202.819 21.2059C201.236 19.5951 199.114 18.9 196.725 18.9H188.725C186.326 18.9 184.196 19.6004 182.591 21.2058C181.686 22.11 181.077 23.1881 180.72 24.3891V19.3H163.92C161.521 19.3 159.391 20.0004 157.786 21.6058C156.966 22.4258 156.389 23.3887 156.022 24.4566C155.682 23.2025 155.055 22.0753 154.105 21.1258C152.572 19.5929 150.576 18.9 148.331 18.9C144.323 18.9 139.849 19.1725 134.914 19.7118L133.131 19.9067V28.8289L133.97 28.7765C133.758 28.9459 133.554 29.1289 133.357 29.3258C131.824 30.8587 131.131 32.855 131.131 35.1V35.3H127.495V28.7H132.495V19.3H127.495V14.5H117.601L116.801 19.3H98.8921C97.5063 19.3 96.2152 19.564 95.0694 20.1267L95.3814 19.3H83.6283L80.489 29.1274L77.3497 19.3H65.5966L65.8691 20.0221C64.5423 19.248 62.9855 18.9 61.2953 18.9H53.2953C50.8961 18.9 48.7664 19.6004 47.161 21.2058C46.2647 22.1022 45.6581 23.1693 45.3 24.3578V12.5H34.3V19.3ZM65.9753 22.62C64.8553 21.4733 63.2953 20.9 61.2953 20.9H53.2953C51.2953 20.9 49.7219 21.4733 48.5753 22.62C47.4553 23.74 46.8953 25.3 46.8953 27.3V36.9C46.8953 38.7133 47.4419 40.1667 48.5353 41.26C49.6286 42.3533 51.0819 42.9 52.8953 42.9C57.0819 42.9 61.7486 42.6333 66.8953 42.1V37.1C66.2061 37.1541 65.5395 37.2046 64.8953 37.2514C60.7781 37.5505 57.5781 37.7 55.2953 37.7C54.8953 37.7 54.5619 37.5667 54.2953 37.3C54.1231 37.1278 54.0065 36.9278 53.9455 36.7C53.912 36.575 53.8953 36.4417 53.8953 36.3V34.7H67.6953V27.3C67.6953 25.3 67.1219 23.74 65.9753 22.62ZM76.489 42.5H84.489L92.489 21.3H85.089L80.489 35.7L75.889 21.3H68.489L76.489 42.5ZM118.495 21.3H116.095V26.7H118.495V36.9C118.495 38.7133 119.042 40.1667 120.135 41.26C121.229 42.3533 122.682 42.9 124.495 42.9C126.975 42.9 129.509 42.7667 132.095 42.5V37.3H126.895C126.495 37.3 126.162 37.1667 125.895 36.9C125.629 36.6333 125.495 36.3 125.495 35.9V26.7H130.495V21.3H125.495V16.5H119.295L118.495 21.3ZM133.131 36.9C133.131 37.0353 133.134 37.1687 133.14 37.3C133.197 38.5178 133.515 39.5631 134.095 40.436C134.291 40.7303 134.516 41.0049 134.771 41.26C135.865 42.3533 137.318 42.9 139.131 42.9H140.531C141.438 42.9 142.545 42.7133 143.851 42.34C144.545 42.1319 145.228 41.866 145.9 41.5423C146.52 41.244 147.13 40.8965 147.731 40.5L148.131 42.5H154.331V26.9C154.331 25.0867 153.785 23.6333 152.691 22.54C151.598 21.4467 150.145 20.9 148.331 20.9C144.411 20.9 140.011 21.1667 135.131 21.7V26.7C135.715 26.6635 136.381 26.6187 137.131 26.5656C138.026 26.5023 139.039 26.4271 140.171 26.34C142.278 26.18 144.198 26.1 145.931 26.1C146.331 26.1 146.665 26.2333 146.931 26.5C147.103 26.6722 147.22 26.8722 147.281 27.1C147.314 27.225 147.331 27.3583 147.331 27.5V29.1H139.131C137.318 29.1 135.865 29.6467 134.771 30.74C133.678 31.8333 133.131 33.2867 133.131 35.1V36.9ZM201.405 22.62C200.285 21.4733 198.725 20.9 196.725 20.9H188.725C186.725 20.9 185.152 21.4733 184.005 22.62C182.885 23.74 182.325 25.3 182.325 27.3V36.9C182.325 38.7133 182.872 40.1667 183.965 41.26C185.058 42.3533 186.512 42.9 188.325 42.9C192.512 42.9 197.178 42.6333 202.325 42.1V37.1C201.636 37.1541 200.969 37.2046 200.325 37.2514C196.208 37.5505 193.008 37.7 190.725 37.7C190.325 37.7 189.992 37.5667 189.725 37.3C189.553 37.1278 189.436 36.9278 189.375 36.7C189.342 36.575 189.325 36.4417 189.325 36.3V34.7H203.125V27.3C203.125 25.3 202.552 23.74 201.405 22.62ZM169.72 41.2696C167.948 41.5565 166.348 41.7 164.92 41.7H163.52C161.707 41.7 160.254 41.1533 159.16 40.06C158.067 38.9667 157.52 37.5133 157.52 35.7V27.7C157.52 25.7 158.08 24.14 159.2 23.02C160.347 21.8733 161.92 21.3 163.92 21.3H178.72V43.7C178.72 45.5133 178.174 46.9667 177.08 48.06C175.987 49.1533 174.534 49.7 172.72 49.7C168.534 49.7 163.867 49.4333 158.72 48.9V43.7C159.409 43.7541 160.076 43.8046 160.72 43.8514C164.837 44.1505 168.037 44.3 170.32 44.3C170.72 44.3 171.054 44.1667 171.32 43.9C171.578 43.6424 171.711 43.3226 171.72 42.9406C171.72 42.9271 171.72 42.9136 171.72 42.9V40.9C171.031 41.0421 170.364 41.1653 169.72 41.2696ZM107.492 34.7V36.1C107.492 36.3202 107.452 36.5202 107.371 36.7C107.305 36.8468 107.212 36.9801 107.092 37.1C106.825 37.3667 106.492 37.5 106.092 37.5C103.367 37.5 99.767 37.3474 95.2921 37.0422C94.6438 36.998 93.9772 36.9506 93.2921 36.9V42.1C98.7055 42.6333 103.772 42.9 108.492 42.9C110.305 42.9 111.759 42.3533 112.852 41.26C113.945 40.1667 114.492 38.7133 114.492 36.9V35.3C114.492 33.4867 113.945 32.0333 112.852 30.94C111.759 29.8467 110.305 29.3 108.492 29.3H101.292C100.892 29.3 100.559 29.1667 100.292 28.9C100.025 28.6333 99.8921 28.3 99.8921 27.9C99.8921 27.5 100.025 27.1667 100.292 26.9C100.559 26.6333 100.892 26.5 101.292 26.5H112.492V21.3H98.8921C97.0788 21.3 95.6255 21.8467 94.5321 22.94C93.4388 24.0333 92.8921 25.4867 92.8921 27.3V28.7C92.8921 30.5133 93.4388 31.9667 94.5321 33.06C95.6255 34.1533 97.0788 34.7 98.8921 34.7H107.492ZM34.3 34.7575V28.7H30.7V35.1H31.5C32.317 35.1 33.248 34.9916 34.3 34.7575ZM30.3 26.7C29.2333 26.7 28.7 27.2333 28.7 28.3V35.7C28.7 36.1 28.8333 36.4333 29.1 36.7C29.3666 36.9667 29.7 37.1 30.1 37.1H31.5C32.9133 37.1 34.5133 36.8333 36.3 36.3V26.7H30.3ZM53.8953 29.7V27.5C53.8953 26.4333 54.4286 25.9 55.4953 25.9H59.0953C60.1619 25.9 60.6953 26.4333 60.6953 27.5V29.7H53.8953ZM141.531 34.1C141.131 34.1 140.798 34.2333 140.531 34.5C140.265 34.7667 140.131 35.1 140.131 35.5V35.9C140.131 36.3 140.265 36.6333 140.531 36.9C140.798 37.1667 141.131 37.3 141.531 37.3H142.531C143.945 37.3 145.545 37.0333 147.331 36.5V34.1H141.531ZM169.72 34.1596V28.7H166.52V34.3H166.92C167.888 34.3 168.821 34.2528 169.72 34.1596ZM189.325 29.7V27.5C189.325 26.4333 189.858 25.9 190.925 25.9H194.525C195.592 25.9 196.125 26.4333 196.125 27.5V29.7H189.325ZM166.92 36.3C168.6 36.3 170.2 36.1667 171.72 35.9V26.7H166.12C165.054 26.7 164.52 27.2333 164.52 28.3V34.9C164.52 35.3 164.654 35.6333 164.92 35.9C165.187 36.1667 165.52 36.3 165.92 36.3H166.92Z" fill="#6F9DE2"/>
</g>
<defs>
<filter id="filter0_d_3157_4420" x="0" y="0" width="225" height="68" filterUnits="userSpaceOnUse" color-interpolation-filters="sRGB">
<feFlood flood-opacity="0" result="BackgroundImageFix"/>
<feColorMatrix in="SourceAlpha" type="matrix" values="0 0 0 0 0 0 0 0 0 0 0 0 0 0 0 0 0 0 127 0" result="hardAlpha"/>
<feOffset dy="4"/>
<feGaussianBlur stdDeviation="2"/>
<feComposite in2="hardAlpha" operator="out"/>
<feColorMatrix type="matrix" values="0 0 0 0 0 0 0 0 0 0 0 0 0 0 0 0 0 0 0.25 0"/>
<feBlend mode="normal" in2="BackgroundImageFix" result="effect1_dropShadow_3157_4420"/>
<feBlend mode="normal" in="SourceGraphic" in2="effect1_dropShadow_3157_4420" result="shape"/>
</filter>
</defs>
</svg>
